# xmcd
#
# Track frame offsets: 
#        150
#        19507
#        35690
#        51965
#        58470
#
# Disc length: 1107 seconds
#
# Revision: 19
# Processed by: cddbd v1.5.2PL0 Copyright (c) Steve Scherf et al.
# Submitted via: ExactAudioCopy v0.99pb5
#
DISCID=42045105
DTITLE=Primus - Miscellaneous Debris
DYEAR=1992
DGENRE=Alternative
TTITLE0=Intruder
TTITLE1=Making Plans For Nigel
TTITLE2=Sinister Exaggerator
TTITLE3=Tippi Toes
TTITLE4=Have A Cigar
EXTD=more info - MillenniumMusicProjectFormat - SYNTAX=SongTitle{Subtit
EXTD=le}[miscInfo](Lyricist;Composer;Date,Artist,Location,State,Countr
EXTD=y)
EXTT0=
EXTT1=
EXTT2=
EXTT3=
EXTT4=
PLAYORDER=
